<svg xmlns="http://www.w3.org/2000/svg" version="1.0" width="216.000000pt" height="234.000000pt" viewBox="0 0 216.000000 234.000000" preserveAspectRatio="xMidYMid meet">

<g transform="translate(0.000000,234.000000) scale(0.100000,-0.100000)" fill="#044cf4" stroke="none">
<path d="M1040 2331 c-31 -10 -1000 -651 -1019 -675 -19 -23 -4 -66 29 -83 16 -8 71 -13 159 -13 123 0 133 -1 125 -17 -31 -72 -65 -192 -74 -269 -18 -145 14 -324 80 -454 11 -22 20 -42 20 -45 0 -3 -67 -5 -149 -5 -82 0 -157 -3 -166 -6 -21 -8 -35 -45 -28 -72 3 -13 184 -139 505 -354 l501 -333 57 0 56 0 495 328 c272 181 500 336 507 345 18 23 15 49 -8 72 -18 18 -33 20 -175 20 l-155 0 23 48 c105 209 114 480 22 688 l-24 54 134 0 c73 0 145 4 159 10 28 10 43 51 30 80 -8 16 -383 270 -869 587 -141 92 -185 110 -235 94z m175 -536 c180 -37 352 -171 432 -335 52 -107 67 -171 67 -288 1 -72 -2 -95 -14 -102 -21 -13 -32 1 -47 62 -23 89 -64 159 -138 233 -135 136 -313 190 -496 151 -178 -38 -327 -182 -374 -361 -32 -123 -14 -273 46 -389 29 -56 32 -86 9 -86 -22 0 -112 96 -155 164 -63 103 -87 181 -92 306 -6 125 11 208 61 307 131 260 416 397 701 338z m50 -420 c203 -53 343 -273 308 -481 -12 -70 -47 -150 -88 -199 -31 -38 -49 -25 -35 25 27 93 4 223 -53 307 -103 149 -297 202 -461 125 -77 -36 -117 -70 -157 -133 -42 -63 -61 -54 -47 24 29 158 165 298 325 336 60 14 144 12 208 -4z m-55 -350 c78 -40 135 -117 146 -199 7 -45 -11 -142 -27 -152 -5 -3 -20 21 -34 53 -15 32 -38 71 -53 87 -79 84 -221 88 -305 8 -31 -29 -77 -111 -77 -137 0 -24 -20 -17 -30 11 -14 35 -13 128 2 176 13 45 73 117 122 147 74 46 173 48 256 6z" fill="#044cf4"/>
</g>
</svg>